# xmcd CD database file
#
# Track frame offsets:
#	150
#	37098
#	62742
#	84770
#	116694
#	136492
#	158375
#	191675
#
# Disc length: 2913 seconds
#
# Revision: 3
# Processed by: cddbd v1.5.2PL0 Copyright (c) Steve Scherf et al.
# Submitted via: CDex 1.70beta2
#
DISCID=620b5f08
DTITLE=Primus Sitter - Five
DYEAR=1998
DGENRE=Jazz
TTITLE0=jupa
TTITLE1=bossa for m.g.
TTITLE2=flat dat in heaven (blues for cindy)
TTITLE3=delphin
TTITLE4=k&k
TTITLE5=meeting j.r.
TTITLE6="5"
TTITLE7=chan's song (never said)
EXTD=YEAR: 1998
EXTT0=
EXTT1=
EXTT2=
EXTT3=
EXTT4=
EXTT5=
EXTT6=
EXTT7=
PLAYORDER=
